<svg width="1000" height="1001" viewBox="0 0 1000 1001" fill="none" xmlns="http://www.w3.org/2000/svg">
<path fill-rule="evenodd" clip-rule="evenodd" d="M348.497 522.719L593.055 381.523C567.176 361.123 534.509 348.951 499 348.951C415.025 348.951 346.95 417.026 346.95 501.001C346.95 508.368 347.474 515.613 348.486 522.7L215.739 599.341L271.48 695.887L403.765 619.512C374.459 595.936 354.08 561.714 348.497 522.719ZM649.292 477.757C643.331 438.853 622.623 404.805 593.055 381.498L725.323 305.133L781.064 401.678L649.292 477.757ZM499 653.051C462.948 653.051 429.826 640.504 403.764 619.538L649.289 477.784C650.448 485.354 651.05 493.107 651.05 501.001C651.05 584.976 582.975 653.051 499 653.051Z" fill="black"/>
</svg>
